<svg width="59" height="52" viewBox="0 0 59 52" fill="none" xmlns="http://www.w3.org/2000/svg">
<path d="M14.6641 19.744V21.5409C14.0898 21.0096 13.4805 20.6151 12.8359 20.3534C12.1875 20.0839 11.5 19.9471 10.7734 19.9471C9.34375 19.9471 8.25 20.3925 7.49219 21.2753C6.73047 22.1503 6.35156 23.4237 6.35156 25.0878C6.35156 26.7557 6.73047 28.0331 7.49219 28.9159C8.25 29.7909 9.34375 30.2284 10.7734 30.2284C11.5 30.2284 12.1875 30.0995 12.8359 29.8378C13.4805 29.5682 14.0898 29.1659 14.6641 28.6346V30.4159C14.0703 30.8221 13.4375 31.1307 12.7734 31.3378C12.1172 31.5331 11.418 31.6346 10.6797 31.6346C8.78125 31.6346 7.28906 31.0526 6.19531 29.8846C5.10937 28.7089 4.57031 27.1112 4.57031 25.0878C4.57031 23.0682 5.10937 21.4745 6.19531 20.3065C7.28906 19.1307 8.78125 18.5409 10.6797 18.5409C11.4297 18.5409 12.1328 18.6464 12.7891 18.8534C13.4531 19.0526 14.0781 19.3495 14.6641 19.744Z" fill="#E3C578"/>
<path d="M22.6574 23.3846C22.4778 23.2831 22.2863 23.2089 22.0793 23.1659C21.8801 23.1151 21.6574 23.0878 21.4074 23.0878C20.5403 23.0878 19.8762 23.3768 19.4074 23.9471C18.9387 24.5096 18.7043 25.33 18.7043 26.4003V31.3846H17.1574V21.9315H18.7043V23.4003C19.0246 22.83 19.4465 22.4003 19.9699 22.119C20.4895 21.8378 21.1184 21.6971 21.8606 21.6971C21.9738 21.6971 22.0949 21.7089 22.2199 21.7284C22.3449 21.7401 22.4856 21.7557 22.6418 21.7753L22.6574 23.3846Z" fill="#E3C578"/>
<path d="M27.5294 23.0096C26.7052 23.0096 26.0528 23.3378 25.5763 23.994C25.0958 24.6425 24.8575 25.5331 24.8575 26.6659C24.8575 27.7909 25.0958 28.6815 25.5763 29.3378C26.0528 29.9862 26.7052 30.3065 27.5294 30.3065C28.3497 30.3065 29.002 29.9862 29.4825 29.3378C29.9708 28.6815 30.2169 27.7909 30.2169 26.6659C30.2169 25.5409 29.9708 24.6503 29.4825 23.994C29.002 23.3378 28.3497 23.0096 27.5294 23.0096ZM27.5294 21.6971C28.8731 21.6971 29.9239 22.1425 30.6856 23.0253C31.4552 23.9003 31.8419 25.1151 31.8419 26.6659C31.8419 28.2089 31.4552 29.4237 30.6856 30.3065C29.9239 31.1932 28.8731 31.6346 27.5294 31.6346C26.1856 31.6346 25.131 31.1932 24.3731 30.3065C23.6114 29.4237 23.2325 28.2089 23.2325 26.6659C23.2325 25.1151 23.6114 23.9003 24.3731 23.0253C25.131 22.1425 26.1856 21.6971 27.5294 21.6971Z" fill="#E3C578"/>
<path d="M33.507 21.9315H35.0539L36.9757 29.3065L38.8976 21.9315H40.7257L42.6476 29.3065L44.5695 21.9315H46.1164L43.6476 31.3846H41.8351L39.8195 23.6346L37.7882 31.3846H35.9601L33.507 21.9315Z" fill="#E3C578"/>
<path d="M56.2583 25.6815V31.3846H54.7114V25.7284C54.7114 24.8339 54.5395 24.162 54.1958 23.7128C53.852 23.2675 53.3286 23.0409 52.6333 23.0409C51.7973 23.0409 51.1411 23.3143 50.6645 23.8534C50.1841 24.3846 49.9458 25.1151 49.9458 26.0409V31.3846H48.3989V21.9315H49.9458V23.4003C50.3208 22.83 50.7583 22.4003 51.2583 22.119C51.7583 21.8378 52.3286 21.6971 52.977 21.6971C54.0591 21.6971 54.8755 22.037 55.4301 22.7128C55.9809 23.3807 56.2583 24.369 56.2583 25.6815Z" fill="#E3C578"/>
<mask id="mask0_24_31" style="mask-type:luminance" maskUnits="userSpaceOnUse" x="0" y="0" width="26" height="50">
<path d="M0 0H26V49.9766H0V0Z" fill="white"/>
</mask>
<g mask="url(#mask0_24_31)">
<path d="M24.8711 0.746063C11.5704 0.746063 0.773468 11.6211 0.773468 25.0117C0.773468 38.4023 11.5704 49.2773 24.8711 49.2773" stroke="#77DD77" stroke-width="1.34625" stroke-miterlimit="1.5" stroke-linecap="round" stroke-linejoin="round"/>
</g>
<path d="M5.05853 11.965L9.74212 14.2618" stroke="#77DD77" stroke-width="1.34626" stroke-miterlimit="1.5" stroke-linecap="round" stroke-linejoin="round"/>
<path d="M5.03903 38.0976L9.76169 35.8906" stroke="#77DD77" stroke-width="1.34626" stroke-miterlimit="1.5" stroke-linecap="round" stroke-linejoin="round"/>
<path d="M8.32809 42.3085L13.0547 40.1015" stroke="#77DD77" stroke-width="1.34626" stroke-miterlimit="1.5" stroke-linecap="round" stroke-linejoin="round"/>
<path d="M12.3047 45.621L17.0273 43.414" stroke="#77DD77" stroke-width="1.34626" stroke-miterlimit="1.5" stroke-linecap="round" stroke-linejoin="round"/>
<path d="M17.2382 47.832L21.9648 45.621" stroke="#77DD77" stroke-width="1.34626" stroke-miterlimit="1.5" stroke-linecap="round" stroke-linejoin="round"/>
<path d="M8.69135 7.47665L13.3749 9.77744" stroke="#77DD77" stroke-width="1.34626" stroke-miterlimit="1.5" stroke-linecap="round" stroke-linejoin="round"/>
<path d="M12.7343 4.4415L17.4179 6.73838" stroke="#77DD77" stroke-width="1.34626" stroke-miterlimit="1.5" stroke-linecap="round" stroke-linejoin="round"/>
<path d="M17.3984 1.95715L22.082 4.25403" stroke="#77DD77" stroke-width="1.34626" stroke-miterlimit="1.5" stroke-linecap="round" stroke-linejoin="round"/>
</svg>
