<svg width="29" height="33" viewBox="0 0 29 33" fill="none" xmlns="http://www.w3.org/2000/svg">
<path d="M14.5 33C15.4978 33.0013 16.4711 32.6842 17.2848 32.0928C18.0985 31.5013 18.712 30.665 19.0401 29.7H9.95989C10.288 30.665 10.9015 31.5013 11.7152 32.0928C12.5289 32.6842 13.5022 33.0013 14.5 33ZM25.7778 20.7669V13.2C25.7778 7.89195 22.2575 3.42045 17.4886 2.0757C17.0166 0.858 15.863 0 14.5 0C13.137 0 11.9834 0.858 11.5114 2.0757C6.7425 3.4221 3.22222 7.89195 3.22222 13.2V20.7669L0.472057 23.5834C0.322155 23.7364 0.203275 23.9182 0.12226 24.1184C0.0412447 24.3186 -0.000305223 24.5333 1.68792e-06 24.75V26.4C1.68792e-06 26.8376 0.169743 27.2573 0.471885 27.5667C0.774027 27.8762 1.18382 28.05 1.61111 28.05H27.3889C27.8162 28.05 28.226 27.8762 28.5281 27.5667C28.8303 27.2573 29 26.8376 29 26.4V24.75C29.0003 24.5333 28.9588 24.3186 28.8777 24.1184C28.7967 23.9182 28.6778 23.7364 28.5279 23.5834L25.7778 20.7669Z" fill="#77DD77"/>
</svg>
