<svg width="12" height="13" viewBox="0 0 12 13" fill="none" xmlns="http://www.w3.org/2000/svg">
<path d="M10 13C9.44444 13 8.97222 12.8104 8.58333 12.4312C8.19444 12.0521 8 11.5917 8 11.05C8 10.9742 8.00556 10.8955 8.01667 10.814C8.02778 10.7326 8.04445 10.6596 8.06667 10.595L3.36667 7.93C3.17778 8.0925 2.96667 8.2199 2.73333 8.3122C2.5 8.4045 2.25556 8.45043 2 8.45C1.44444 8.45 0.972222 8.26042 0.583333 7.88125C0.194444 7.50208 0 7.04167 0 6.5C0 5.95833 0.194444 5.49792 0.583333 5.11875C0.972222 4.73958 1.44444 4.55 2 4.55C2.25556 4.55 2.5 4.59615 2.73333 4.68845C2.96667 4.78075 3.17778 4.90793 3.36667 5.07L8.06667 2.405C8.04445 2.34 8.02778 2.26698 8.01667 2.18595C8.00556 2.10492 8 2.02627 8 1.95C8 1.40833 8.19444 0.947917 8.58333 0.56875C8.97222 0.189583 9.44444 0 10 0C10.5556 0 11.0278 0.189583 11.4167 0.56875C11.8056 0.947917 12 1.40833 12 1.95C12 2.49167 11.8056 2.95208 11.4167 3.33125C11.0278 3.71042 10.5556 3.9 10 3.9C9.74444 3.9 9.5 3.85407 9.26667 3.7622C9.03333 3.67033 8.82222 3.54293 8.63333 3.38L3.93333 6.045C3.95556 6.11 3.97222 6.18323 3.98333 6.2647C3.99444 6.34617 4 6.4246 4 6.5C4 6.57583 3.99444 6.65448 3.98333 6.73595C3.97222 6.81742 3.95556 6.89043 3.93333 6.955L8.63333 9.62C8.82222 9.4575 9.03333 9.33032 9.26667 9.23845C9.5 9.14658 9.74444 9.10043 10 9.1C10.5556 9.1 11.0278 9.28958 11.4167 9.66875C11.8056 10.0479 12 10.5083 12 11.05C12 11.5917 11.8056 12.0521 11.4167 12.4312C11.0278 12.8104 10.5556 13 10 13Z" fill="#77DD77"/>
</svg>
