<svg width="15" height="12" viewBox="0 0 15 12" fill="none" xmlns="http://www.w3.org/2000/svg">
<path d="M1.5 12H2.25V3.78947H1.5C1.10218 3.78947 0.720644 3.92256 0.43934 4.15944C0.158035 4.39633 0 4.71762 0 5.05263V10.7368C0 11.0719 0.158035 11.3931 0.43934 11.63C0.720644 11.8669 1.10218 12 1.5 12ZM13.5 3.78947H8.25L9.0915 1.66232C9.16659 1.47247 9.18704 1.27032 9.15118 1.07252C9.11532 0.874714 9.02417 0.686914 8.88523 0.524586C8.7463 0.362258 8.56356 0.230048 8.35206 0.138844C8.14056 0.0476396 7.90636 5.18607e-05 7.66875 0H7.5L3.75 3.43453V12H12L14.934 6.57095L15 6.31579V5.05263C15 4.71762 14.842 4.39633 14.5607 4.15944C14.2794 3.92256 13.8978 3.78947 13.5 3.78947Z" fill="#77DD77"/>
</svg>
