<svg width="4" height="15" viewBox="0 0 4 15" fill="none" xmlns="http://www.w3.org/2000/svg">
<path d="M1.54764e-05 13.2981V12.8878C0.00952416 12.8546 0.025372 12.8244 0.0317111 12.7912C0.171172 11.9282 0.925527 11.2462 1.80982 11.1889C2.79872 11.1225 3.63548 11.6596 3.90807 12.5347C3.94293 12.6494 3.96829 12.7701 3.99998 12.8878V13.2981C3.99048 13.3253 3.97463 13.3494 3.97146 13.3796C3.83517 14.1762 3.23295 14.7827 2.40887 14.9547C2.34547 14.9668 2.28208 14.9849 2.21869 15H1.78763C1.75911 14.9909 1.73058 14.9759 1.70205 14.9728C0.877968 14.8461 0.250411 14.2879 0.0602214 13.5124C0.0412041 13.4369 0.0190328 13.3675 1.54764e-05 13.2981ZM4 1.69885L3.99998 2.10926C3.99048 2.14245 3.97463 2.17263 3.97146 2.20582C3.82883 3.07486 3.0713 3.7538 2.17749 3.80812C1.19175 3.86847 0.35816 3.32532 0.0887473 2.44722C0.0538821 2.33556 0.028526 2.22091 0 2.10924V1.69886C0.00950868 1.6717 0.0253565 1.64756 0.0316956 1.6204C0.183834 0.835851 0.662438 0.322874 1.46117 0.0784554C1.56576 0.0452627 1.6767 0.0271576 1.78446 0H2.21552C2.24405 0.00905254 2.27257 0.0241401 2.3011 0.0271576C3.12836 0.156911 3.75276 0.712133 3.94293 1.48763C3.96197 1.56005 3.98098 1.62946 4 1.69885ZM3.99998 7.29333V7.70371C3.99048 7.73691 3.97463 7.76708 3.96829 7.80027C3.82566 8.6663 3.03961 9.36335 2.15213 9.39956C1.15372 9.4418 0.307447 8.86847 0.0697302 7.98434C0.0443737 7.8908 0.0221869 7.79726 0 7.70371V7.29333C0.00950868 7.26014 0.0253565 7.22996 0.0316956 7.19677C0.171156 6.33074 0.960376 5.63368 1.84785 5.59447C2.84626 5.54921 3.69254 6.12555 3.93025 7.00968C3.95561 7.10624 3.9778 7.19979 3.99998 7.29333Z" fill="#77DD77"/>
</svg>
