<svg width="32" height="32" viewBox="0 0 32 32" fill="none" xmlns="http://www.w3.org/2000/svg">
<path d="M29.5111 32L18.3111 20.8C17.4222 21.5111 16.4 22.0741 15.2444 22.4889C14.0889 22.9037 12.8593 23.1111 11.5556 23.1111C8.32593 23.1111 5.59289 21.9923 3.35644 19.7547C1.12 17.517 0.00118519 14.784 0 11.5556C0 8.32593 1.11881 5.59289 3.35644 3.35644C5.59407 1.12 8.32711 0.00118519 11.5556 0C14.7852 0 17.5182 1.11881 19.7547 3.35644C21.9911 5.59407 23.1099 8.32711 23.1111 11.5556C23.1111 12.8593 22.9037 14.0889 22.4889 15.2444C22.0741 16.4 21.5111 17.4222 20.8 18.3111L32 29.5111L29.5111 32ZM11.5556 19.5556C13.7778 19.5556 15.667 18.7775 17.2231 17.2213C18.7793 15.6652 19.5567 13.7766 19.5556 11.5556C19.5556 9.33333 18.7775 7.44415 17.2213 5.888C15.6652 4.33185 13.7766 3.55437 11.5556 3.55556C9.33333 3.55556 7.44415 4.33363 5.888 5.88978C4.33185 7.44593 3.55437 9.33452 3.55556 11.5556C3.55556 13.7778 4.33363 15.667 5.88978 17.2231C7.44593 18.7793 9.33452 19.5567 11.5556 19.5556Z" fill="#77DD77"/>
</svg>
